<svg viewBox="0 0 52 36" xmlns="http://www.w3.org/2000/svg" fill="none" role="img" aria-label="ServLitcys">
    <g fill="#0d9488">
        <rect x="2" y="18" width="7" height="14" rx="1.5" opacity="0.75" />
        <rect x="12" y="10" width="7" height="22" rx="1.5" opacity="0.9" />
        <rect x="22" y="4" width="7" height="28" rx="1.5" />
        <path opacity="0.92" d="M36 4c2.5 0 4.5 1.2 6 3.1V32c-1.5-1.1-3.3-1.8-5.2-1.8-2.1 0-4 .8-5.5 2.1l-.3.3V6.5C32.5 5 34.1 4 36 4Z" />
        <path opacity="0.55" d="M42 4c1.9 0 3.5 1 4.5 2.5V32c-1.5-1.3-3.4-2.1-5.5-2.1-1.9 0-3.7.7-5.2 1.8V7.1C36.5 5.2 38.5 4 41 4h1Z" />
    </g>
</svg>
