<svg xmlns="http://www.w3.org/2000/svg" viewBox="0 0 32 32">
    <defs>
        <linearGradient id="bg" x1="0" y1="0" x2="1" y2="1">
            <stop offset="0" stop-color="#1d4ed8"/>
            <stop offset="1" stop-color="#2563eb"/>
        </linearGradient>
    </defs>
    <rect width="32" height="32" rx="7" fill="url(#bg)"/>
    <g fill="#fff">
        {{-- Barras --}}
        <rect x="4" y="18" width="3" height="6" rx="0.7" opacity="0.75"/>
        <rect x="8.5" y="15" width="3" height="9" rx="0.7" opacity="0.9"/>
        <rect x="13" y="11" width="3" height="13" rx="0.7"/>
        {{-- Tendência --}}
        <path d="M5.5 16.5 10 13.5 14.5 10" fill="none" stroke="#fff" stroke-width="1.2" stroke-linecap="round" stroke-linejoin="round"/>
        <path d="M14.5 10l-1.5.6 1 1.5z"/>
        {{-- Capelo --}}
        <path d="M16.5 14.5 20 12.5 23.5 14.5 20 16.5Z" opacity="0.95"/>
        <path d="M18.8 15v3.8c0 .35.3.6.7.6h1.5c.4 0 .7-.25.7-.6V15" opacity="0.8"/>
        <circle cx="22.8" cy="13.2" r="0.65" opacity="0.55"/>
        {{-- Horizonte --}}
        <circle cx="26.5" cy="12.5" r="1.5" opacity="0.95"/>
    </g>
    <path d="M23.5 16.5q3-4.5 6 0" fill="none" stroke="#fff" stroke-width="1.2" stroke-linecap="round" opacity="0.85"/>
</svg>
