<svg xmlns="http://www.w3.org/2000/svg" viewBox="0 0 32 32">
    <defs>
        <linearGradient id="bg" x1="0" y1="0" x2="1" y2="1">
            <stop offset="0" stop-color="#4f46e5"/>
            <stop offset="1" stop-color="#059669"/>
        </linearGradient>
    </defs>
    <rect width="32" height="32" rx="7" fill="url(#bg)"/>
    <g fill="#fff">
        <rect x="5" y="17" width="4" height="8" rx="0.8" opacity="0.85"/>
        <rect x="10" y="12" width="4" height="13" rx="0.8" opacity="0.95"/>
        <rect x="15" y="7" width="4" height="18" rx="0.8"/>
        <path opacity="0.95" d="M22 6c1.4 0 2.6.7 3.4 1.7V24c-1-.7-2.1-1.1-3.3-1.1-1.2 0-2.3.4-3.2 1V7.4c.7-.9 1.8-1.4 3-1.4h.1Z"/>
        <path opacity="0.55" d="M25.4 6c1.1.9 1.8 2.2 1.8 3.7V24c-1-.9-2.3-1.4-3.7-1.4-1.2 0-2.4.4-3.4 1.1V7.7c.8-1 2-1.6 3.3-1.6Z"/>
    </g>
</svg>
